HIERARCHY
ROOT root     
{
	OFFSET 0.0000 0.0000 0.0000
	CHANNELS 6 Xposition Yposition Zposition Zrotation Yrotation Xrotation
	JOINT pelvis   
	{
		OFFSET 0.0000 0.0000 0.0000
		CHANNELS 3 Zrotation Yrotation Xrotation
		JOINT thorax   
		{
			OFFSET 0.0000 23.0750 -5.0000
			CHANNELS 3 Zrotation Yrotation Xrotation
			JOINT rclavicle
			{
				OFFSET 0.0000 28.0009 0.0000
				CHANNELS 3 Zrotation Yrotation Xrotation
				JOINT rhumerus 
				{
					OFFSET -18.5725 5.5939 0.0000
					CHANNELS 3 Zrotation Yrotation Xrotation
					JOINT rradius  
					{
						OFFSET -24.8459 0.0000 0.0000
						CHANNELS 3 Zrotation Yrotation Xrotation
						JOINT rhand    
						{
							OFFSET -24.5477 0.0000 0.0000
							CHANNELS 3 Zrotation Yrotation Xrotation
							End Site
							{
								OFFSET -8.1826 0.0000 0.0000
							}
						}
					}
				}
			}
			JOINT lclavicle
			{
				OFFSET 0.0000 28.0009 0.0000
				CHANNELS 3 Zrotation Yrotation Xrotation
				JOINT lhumerus 
				{
					OFFSET 18.5725 5.5939 0.0000
					CHANNELS 3 Zrotation Yrotation Xrotation
					JOINT lradius  
					{
						OFFSET 24.8459 0.0000 0.0000
						CHANNELS 3 Zrotation Yrotation Xrotation
						JOINT lhand    
						{
							OFFSET 24.5477 0.0000 0.0000
							CHANNELS 3 Zrotation Yrotation Xrotation
							End Site
							{
								OFFSET 8.1826 0.0000 0.0000
							}
						}
					}
				}
			}
			JOINT head     
			{
				OFFSET 0.0000 35.2030 0.0000
				CHANNELS 3 Zrotation Yrotation Xrotation
				End Site
				{
					OFFSET 0.0000 11.7343 0.0000
				}
			}
		}
		JOINT rfemur   
		{
			OFFSET -8.2817 0.0000 0.0000
			CHANNELS 3 Zrotation Yrotation Xrotation
			JOINT rtibia   
			{
				OFFSET 0.0000 -43.3627 0.0000
				CHANNELS 3 Zrotation Yrotation Xrotation
				JOINT rfoot    
				{
					OFFSET 0.0000 -38.2947 0.0000
					CHANNELS 3 Zrotation Yrotation Xrotation
					JOINT rtoes    
					{
						OFFSET 0.0000 0.0000 16.6054
						CHANNELS 3 Zrotation Yrotation Xrotation
						End Site
						{
							OFFSET 0.0000 0.0000 5.5351
						}
					}
				}
			}
		}
		JOINT lfemur   
		{
			OFFSET 8.2817 0.0000 0.0000
			CHANNELS 3 Zrotation Yrotation Xrotation
			JOINT ltibia   
			{
				OFFSET 0.0000 -43.3627 0.0000
				CHANNELS 3 Zrotation Yrotation Xrotation
				JOINT lfoot    
				{
					OFFSET 0.0000 -38.2947 0.0000
					CHANNELS 3 Zrotation Yrotation Xrotation
					JOINT ltoes    
					{
						OFFSET 0.0000 0.0000 16.6054
						CHANNELS 3 Zrotation Yrotation Xrotation
						End Site
						{
							OFFSET 0.0000 0.0000 5.5351
						}
					}
				}
			}
		}
	}
}
MOTION
Frames: 9
Frame Time: .0333333
-64.273 72.374 -6.1222 -42.2494 81.9146 -18.688 0 -0 0 -5.61263 7.33219 16.4482 20.6356 -8.35957 -5.61397e-05 37.5634 13.7477 14.7862 -180 83.9295 -180 0.534211 6.4104 0.0299009 -18.7443 17.7442 -9.56792e-05 -59.6149 28.3529 9.40081 0 -67.9461 0 -3.11711 1.42354 -0.0387013 3.35008 -2.48051 -19.4353 3.45932 -13.6816 -10.1439 -0 -0 53.5703 4.41058e-06 4.03295 -4.22537 -0.297597 -3.29061e-06 -81.3002 -6.11435 10.2693 -74.3081 -0 -0 62.9035 -8.66727e-06 11.653 -1.35626 -0.279601 1.39843e-06 -20.2378 
-62.937 72.151 -6.1051 -41.4794 81.9372 -18.018 0 -0 0 -6.17713 7.36228 16.3952 21.0056 -8.24032 3.01574e-05 37.7071 13.2566 14.9066 -180 84.1309 -180 0.505699 6.44683 0.0285 -18.9799 17.481 8.07942e-05 -59.1864 27.6485 9.33798 6.24999e-07 -67.6535 -9.32682e-07 -3.00491 1.49082 -0.0391008 3.46415 -2.36123 -19.6488 2.98674 -13.5967 -9.84807 -0 -0 54.5388 -9.80968e-07 4.08089 -2.12293 -0.151401 -2.51357e-07 -82.1499 -6.23214 10.3985 -74.1441 -0 -0 64.566 -8.67293e-06 11.61 -2.4544 -0.504092 1.09594e-06 -19.3769 
-61.626 71.95 -6.0953 -40.775 81.9863 -17.397 0 -0 0 -6.70537 7.35902 16.3642 21.3706 -8.11072 5.17747e-05 37.9501 12.7701 15.0093 -180 84.4488 -180 0.453307 6.48355 0.0257003 -19.2368 17.1926 -7.12884e-05 -58.7512 26.8079 9.2535 6.13019e-07 -67.3016 -9.20895e-07 -2.83734 1.58391 -0.0391993 3.53188 -2.22689 -19.8599 2.56619 -13.5083 -9.71177 -0 -0 55.6621 9.1735e-09 3.92816 0.0193007 0.00130002 7.7166e-10 -82.2824 -6.35035 10.4742 -73.8966 -0 -0 66.0734 -5.33729e-06 11.6725 -3.77388 -0.779 1.47777e-06 -18.6651 
-60.34 71.775 -6.0977 -39.9816 82.0648 -16.6693 0 -0 0 -7.22776 7.3197 16.3504 21.7324 -7.95767 3.41406e-05 38.2978 12.2779 15.0891 -180 84.9127 -180 0.381697 6.51688 0.0216996 -19.5276 16.8463 -7.07718e-05 -58.3087 25.8893 9.09939 6.0094e-07 -66.9351 -9.09022e-07 -2.61183 1.70085 -0.0388015 3.56287 -2.06957 -20.0638 2.17102 -13.4352 -9.74519 -0 -0 56.949 1.78288e-06 3.56773 2.12925 0.1327 3.29176e-07 -81.6727 -6.48059 10.4854 -73.5632 -0 -0 67.4177 -1.48744e-05 11.8525 -5.2384 -1.09771 5.62186e-06 -18.1316 
-59.086 71.626 -6.1037 -39.2825 82.1637 -16.0177 0 -0 0 -7.69968 7.2527 16.3496 22.0773 -7.79759 1.99975e-06 38.7498 11.8024 15.148 -180 85.5115 -180 0.292294 6.5464 0.0166995 -19.82 16.4951 -9.67762e-05 -57.8853 24.8301 8.92186 8.3055e-07 -66.5088 -1.26657e-06 -2.33101 1.83306 -0.0372972 3.54653 -1.89316 -20.2613 1.85235 -13.3434 -9.94765 -0 -0 58.3743 -1.84312e-06 2.95167 4.08858 0.210598 2.90937e-06 -80.2284 -6.58525 10.4508 -73.163 -0 -0 68.62 2.26127e-05 12.132 -6.76495 -1.45061 -4.57186e-06 -17.8051 
-57.863 71.503 -6.1128 -38.6515 82.2653 -15.4095 0 -0 0 -8.12782 7.16181 16.3578 22.4067 -7.62574 3.09155e-06 39.3052 11.34 15.1789 -180 86.2525 -180 0.192094 6.57041 0.0109995 -20.1126 16.1299 0.00012531 -57.4824 23.6611 8.69838 8.10299e-07 -66.0459 -1.24668e-06 -1.99878 1.9749 -0.0344995 3.49004 -1.69686 -20.4525 1.60706 -13.2344 -10.3214 -0 -0 59.9281 1.90585e-06 2.07653 5.80253 0.210006 2.61395e-06 -77.9844 -6.66168 10.3729 -72.7082 -0 -0 69.6842 1.16788e-05 12.4973 -8.27227 -1.82652 -1.00153e-06 -17.699 
-56.675 71.408 -6.1226 -38.0966 82.366 -14.854 0 -0 0 -8.50992 7.05218 16.3704 22.7204 -7.44216 4.37856e-05 39.9576 10.8906 15.1733 -180 87.1278 -180 0.0883989 6.58877 0.00509989 -20.4022 15.7562 2.26823e-05 -57.1082 22.3895 8.42602 -8.67266e-07 -65.5501 5.58397e-07 -1.62017 2.11836 -0.029999 3.39937 -1.48271 -20.6361 1.44133 -13.1044 -10.8659 -0 -0 61.5979 -6.56432e-07 0.948098 7.18142 0.118497 2.45226e-08 -75.0102 -6.70499 10.2643 -72.2109 -0 -0 70.6232 2.04392e-05 12.9215 -9.69063 -2.21159 1.15508e-06 -17.8136 
-55.522 71.34 -6.131 -37.6209 82.4556 -14.3534 0 -0 0 -8.84622 6.92907 16.383 23.0201 -7.24653 -5.4523e-06 40.6992 10.4551 15.1223 -180 88.1249 -180 -0.0107001 6.60263 -0.000600009 -20.6797 15.3787 4.87829e-05 -56.7671 21.0258 8.10232 5.43926e-07 -65.0439 -8.5308e-07 -1.20245 2.25621 -0.0236992 3.28126 -1.25364 -20.8098 1.35606 -12.9473 -11.5778 -0 -0 63.3637 3.74015e-07 -0.4085 8.15718 -0.0579994 5.48332e-07 -71.4303 -6.71514 10.1379 -71.6876 -0 -0 71.4478 7.64148e-05 13.3761 -10.9692 -2.59087 -2.28983e-05 -18.1332 
-54.404 71.301 -6.1364 -37.2164 82.5287 -13.9014 0 -0 0 -9.1379 6.7973 16.3942 23.3089 -7.03823 -7.74298e-05 41.5219 10.0347 15.0169 -180 89.321 -180 -0.0981015 6.61362 -0.00570015 -20.943 15.0009 6.04091e-06 -56.4597 19.5818 7.72901 0 -64.5351 0 -0.753905 2.38213 -0.0157004 3.1431 -1.01325 -20.9705 1.34811 -12.7639 -12.4506 -0 -0 65.2068 -7.38576e-06 -1.94882 8.68915 -0.294498 -4.15692e-06 -67.3941 -6.69462 10.0075 -71.1452 -0 -0 72.1689 7.45858e-06 13.8325 -12.0793 -2.9497 2.34454e-06 -18.6187 
